<?xml version="1.0" ?><!DOCTYPE svg  PUBLIC '-//W3C//DTD SVG 1.1//EN'  'http://www.w3.org/Graphics/SVG/1.1/DTD/svg11.dtd'><svg enable-background="new 0 0 800 800" height="800px" id="Layer_1" version="1.1" viewBox="0 0 800 800" width="800px" xml:space="preserve" xmlns="http://www.w3.org/2000/svg" xmlns:xlink="http://www.w3.org/1999/xlink"><g><path d="M274.579,385.147c-20.543-29.644-54.493-47.691-90.824-47.691c-5.06,0-10.173,0.351-15.218,1.051   c-55.125,7.593-94.918,53.808-95.473,108.088c-30.72,8.142-51.316,38.195-46.866,70.456c4.333,31.454,31.512,55.179,63.217,55.179   c2.922,0,5.881-0.198,8.78-0.594c15.872-2.191,30.229-10.317,40.326-22.491c18.778,8.415,39.732,11.474,60.245,8.628   c18.253-2.525,35.41-9.48,50.141-20.285c14.106,6.742,29.765,9.283,45.12,7.152c43.871-6.041,74.664-46.671,68.63-90.573   C356.82,411.717,317.826,380.567,274.579,385.147z M290.306,517.629c-12.212,1.689-24.706-1.141-35.495-7.989   c-5.113-3.241-11.748-2.724-16.298,1.264c-12.265,10.759-27.3,17.621-43.476,19.858c-18.702,2.571-37.815-1.324-54.044-11.018   c-3.234-1.933-7.099-2.435-10.713-1.415c-3.614,1.035-6.643,3.5-8.377,6.833c-5.494,10.575-15.742,17.85-27.421,19.448   c-20.216,2.754-38.561-11.581-41.273-31.272c-2.754-20.011,11.276-38.515,31.207-41.27c0.198-0.015,0.396-0.015,0.586-0.015   c0.183,0,0.365,0,0.548,0c0.951,0.137,1.583-0.016,2.382-0.046c3.751-0.183,7.251-1.902,9.686-4.763   c2.442-2.846,3.599-6.574,3.203-10.303c-4.816-45.073,26.569-85.231,71.445-91.425c33.676-4.642,67.237,12.112,83.931,41.573   c2.982,5.28,9.085,7.943,14.966,6.559c0.89-0.198,1.765-0.441,2.64-0.685c0.677-0.183,1.339-0.411,1.994-0.502   c2.435-0.335,4.9-0.503,7.334-0.503c26.341,0,48.909,19.707,52.515,45.835C339.632,486.784,319.287,513.627,290.306,517.629z" fill="#4D4D4D"/><path d="M760.094,475.63c-8.119-9.085-18.711-15.157-30.412-17.592c-4.961-46.169-42.297-82.568-89.965-85.263   c-35.996-2.1-69.711,16.404-87.818,46.702c-37.39-0.502-68.6,28.928-70.7,66.317c-2.184,38.682,27.521,71.933,66.202,74.108   c13.339,0.775,26.197-2.313,37.77-8.796c13.247,7.929,28.198,12.524,43.742,13.392c17.698,0.988,34.803-2.801,50.126-10.926   c9.618,9.313,22.339,15.02,35.897,15.779c1.08,0.062,2.146,0.092,3.211,0.092c29.826,0,54.493-23.344,56.167-53.124   C775.166,501.301,770.113,486.845,760.094,475.63z M716.473,542.13c-9.32-0.533-17.881-5.615-22.902-13.62   c-1.993-3.181-5.219-5.402-8.902-6.133c-0.882-0.183-1.765-0.259-2.646-0.259c-2.816,0-5.586,0.867-7.914,2.526   c-12.782,9.085-27.832,13.498-43.666,12.63c-13.429-0.76-26.242-5.401-37.039-13.421c-4.854-3.607-11.496-3.592-16.335,0.045   c-8.339,6.285-18.094,9.298-28.13,8.78c-23.67-1.323-41.854-21.669-40.516-45.347c1.324-23.572,21.137-41.757,45.363-40.524   c0.486,0.046,0.943,0.168,1.399,0.259c0.807,0.152,1.62,0.305,2.45,0.427c5.98,0.882,11.809-2.268,14.35-7.746   c11.793-25.397,37.982-41.314,66.195-39.747c37.275,2.1,65.724,33.021,64.766,70.38c-0.1,3.759,1.369,7.396,4.047,10.043   c2.671,2.647,6.27,4.094,10.09,3.926c0.669-0.015,1.323-0.076,1.985-0.121l0.677-0.062c7.738,0.427,14.853,3.851,20.012,9.633   c5.166,5.782,7.768,13.239,7.334,20.984C746.191,530.701,732.558,542.981,716.473,542.13z" fill="#4D4D4D"/><path d="M114.774,647.585c-6.855-3.119-14.936-0.106-18.063,6.741l-10.979,24.073   c-3.12,6.849-0.106,14.929,6.749,18.063c1.833,0.837,3.751,1.233,5.653,1.233c5.174,0,10.119-2.969,12.409-7.99l10.979-24.059   C124.643,658.785,121.629,650.704,114.774,647.585z" fill="#4D4D4D"/><path d="M211.107,576.612c-6.855-3.12-14.943-0.107-18.063,6.756l-10.987,24.059   c-3.119,6.863-0.099,14.943,6.757,18.063c1.826,0.838,3.751,1.232,5.646,1.232c5.174,0,10.119-2.951,12.417-7.973l10.972-24.074   C220.976,587.827,217.955,579.747,211.107,576.612z" fill="#4D4D4D"/><path d="M250.657,633.159c-6.848-3.135-14.943-0.106-18.063,6.741l-12.022,26.356   c-3.12,6.848-0.099,14.928,6.756,18.063c1.826,0.838,3.751,1.232,5.646,1.232c5.174,0,10.127-2.967,12.417-7.988l12.014-26.342   C260.533,644.358,257.504,636.278,250.657,633.159z" fill="#4D4D4D"/><path d="M77.073,369.915c39.793-138.614,167.695-240.342,318.939-240.342   c157.529,0,289.737,110.355,323.443,257.812c16.252,16.921,27.422,38.667,31.165,62.923c1.431,0.411,2.815,0.929,4.2,1.431   c-5.136-193.549-164.058-349.435-358.808-349.435c-191.053,0-347.677,149.997-358.413,338.417   c4.649-3.591,9.652-6.756,15.027-9.328C55.423,408.704,64.055,387.674,77.073,369.915z" fill="#4D4D4D"/><path d="M643.049,342.523c1.477,3.044,2.892,6.133,4.246,9.222c0.609,1.37,7.092,1.477,8.72,1.766   c8.232,1.461,16.313,3.773,24.043,6.97c-26.546-74.961-84.356-139.437-156.951-172.442   c-78.856-35.852-170.098-37.557-249.472-2.101c-64.551,28.822-117.744,80.287-148.749,143.819   c9.419-4.642,19.402-8.111,29.643-10.394c6.247-1.385,7.639-1.126,11.109-6.468c3.332-5.158,6.848-10.195,10.5-15.126   c12.965-17.5,28.152-33.174,44.769-47.204c33.927-28.669,74.565-47.325,117.63-57.308c86.327-20.026,180.264,7.897,244.542,67.869   c14.441,13.527,27.467,28.563,38.713,44.86C629.811,317.583,636.909,329.833,643.049,342.523z" fill="#4D4D4D"/><path d="M540.097,400.137c5.806-8.02,12.547-15.202,20.042-21.441c-30.321-59.956-92.484-101.18-164.126-101.18   c-54.691,0-103.858,24.028-137.564,62.041c7.518,5.188,14.487,11.139,20.833,17.819c28.7-32.185,70.327-52.591,116.731-52.591   C460.633,304.785,516.213,344.152,540.097,400.137z" fill="#4D4D4D"/><path d="M608.917,342.555C609.814,344.152,607.912,340.759,608.917,342.555L608.917,342.555z" fill="#4D4D4D"/><path d="M412.386,218.062c-81.595-5.371-162.574,31.424-211.504,97.193c-0.441,0.593-0.883,1.202-1.324,1.795   c9.906,1.202,19.646,3.592,29.02,7c6.619-8.11,13.924-15.658,21.624-22.734c15.247-13.97,32.504-25.413,50.962-34.665   c35.258-17.667,75.189-24.135,114.304-21.046c39.68,3.135,78.902,18.565,110.531,42.608c16.404,12.448,31.027,27.011,43.407,43.477   c6.201,8.247,11.74,16.952,16.731,25.991c1.72,3.089,0.859,4.078,4.489,2.587c2.563-1.051,5.159-2.009,7.791-2.861   c5.296-1.734,10.713-3.089,16.198-4.048c-1.818-3.652-3.705-7.259-5.698-10.804C569.04,271.094,493.95,223.57,412.386,218.062z" fill="#4D4D4D"/></g></svg>